<svg width="12" height="10" viewBox="0 0 12 10" fill="none" xmlns="http://www.w3.org/2000/svg">
<path d="M10.3324 1.05225C10.798 2.18397 11.7644 2.91782 11.7029 4.20869C8.41701 6.2511 5.00812 8.06362 1.55529 9.99993C1.44107 9.33681 1.35324 8.83284 1.27417 8.38192C2.04732 6.95842 3.07524 5.80018 4.37555 5.02212C5.47377 4.359 6.52806 3.64283 7.57357 2.90898C8.41701 2.31659 9.28684 1.75073 10.3324 1.05225Z" fill="#C6874A"/>
<path d="M3.8837 0C4.5602 0.698485 4.85015 1.4677 5.21916 2.17503C5.32459 2.37839 5.28945 2.82931 5.14009 2.97961C3.90129 4.19091 2.85576 5.63209 1.25675 6.43667C1.0986 6.51625 0.940457 6.61351 0.773526 6.63119C0.553881 6.64887 0.27276 6.64887 0.140973 6.52509C0.00918596 6.40131 -0.0259916 6.10069 0.0179375 5.89734C0.0706523 5.62325 0.237617 5.36684 0.360619 5.1016C0.606621 4.57994 0.852624 4.05829 1.10741 3.53663C1.23041 3.27139 1.32702 2.97961 1.51153 2.76742C2.24075 1.86557 3.00511 0.999099 3.8837 0Z" fill="#C6874A"/>
</svg>
