<svg width="26" height="19" viewBox="0 0 26 19" fill="none" xmlns="http://www.w3.org/2000/svg">
<path d="M25.8945 0L20.6734 11.0751L19.9878 7.11968C21.1481 7.11968 22.1677 7.38337 23.0467 7.91075C23.9608 8.43814 24.6815 9.15889 25.2089 10.073C25.7363 10.952 26 11.9364 26 13.0264C26 14.1163 25.7363 15.1007 25.2089 15.9797C24.6815 16.8587 23.9608 17.5619 23.0467 18.0893C22.1325 18.6166 21.1129 18.8803 19.9878 18.8803C18.8979 18.8803 17.8959 18.6166 16.9817 18.0893C16.0676 17.5619 15.3469 16.8411 14.8195 15.927C14.2921 15.0128 14.0284 13.9932 14.0284 12.8682C14.0284 11.8134 14.2745 10.7059 14.7667 9.54564C15.2941 8.35024 16.1731 6.83841 17.4037 5.01014L20.7262 0H25.8945ZM11.8661 0L6.64503 11.0751L5.95943 7.11968C7.11968 7.11968 8.13928 7.38337 9.01826 7.91075C9.93239 8.43814 10.6531 9.15889 11.1805 10.073C11.7079 10.952 11.9716 11.9364 11.9716 13.0264C11.9716 14.1163 11.7079 15.1007 11.1805 15.9797C10.6531 16.8587 9.93239 17.5619 9.01826 18.0893C8.10412 18.6166 7.08452 18.8803 5.95943 18.8803C4.86951 18.8803 3.86748 18.6166 2.95335 18.0893C2.03922 17.5619 1.31846 16.8411 0.791075 15.927C0.263692 15.0128 0 13.9932 0 12.8682C0 11.8134 0.246112 10.7059 0.738337 9.54564C1.26572 8.35024 2.14469 6.83841 3.37525 5.01014L6.69777 0H11.8661Z" fill="#13C578"/>
</svg>
