<svg width="12" height="10" viewBox="0 0 12 10" fill="none" xmlns="http://www.w3.org/2000/svg">
<path d="M10.3316 1.05078C10.7973 2.1825 11.7637 2.91636 11.7022 4.20723C8.41628 6.24963 5.00738 8.06216 1.55456 9.99847C1.44034 9.33535 1.35251 8.83138 1.27344 8.38046C2.04659 6.95696 3.07451 5.79871 4.37481 5.02065C5.47304 4.35753 6.52733 3.64137 7.57284 2.90751C8.41628 2.31513 9.28611 1.74927 10.3316 1.05078Z" fill="#85195E"/>
<path d="M3.8837 0C4.5602 0.698485 4.85015 1.4677 5.21916 2.17503C5.32459 2.37839 5.28945 2.82931 5.14009 2.97961C3.90129 4.19091 2.85576 5.63209 1.25675 6.43667C1.0986 6.51625 0.940457 6.61351 0.773526 6.63119C0.553881 6.64887 0.27276 6.64887 0.140973 6.52509C0.00918596 6.40131 -0.0259916 6.10069 0.0179375 5.89734C0.0706524 5.62325 0.237617 5.36684 0.360619 5.1016C0.606621 4.57994 0.852624 4.05829 1.10741 3.53663C1.23041 3.27139 1.32702 2.97961 1.51153 2.76742C2.24075 1.86557 3.00511 0.999099 3.8837 0Z" fill="#85195E"/>
</svg>
