<svg width="28" height="28" viewBox="0 0 28 28" fill="none" xmlns="http://www.w3.org/2000/svg">
<path d="M22.2391 24.465C19.959 26.745 14.12 24.6026 9.19715 19.6798C4.27435 14.757 2.13196 8.91794 4.41199 6.63789L5.91322 5.13667C6.9496 4.10028 8.6573 4.12768 9.72748 5.19786L12.0527 7.52313C13.1229 8.5933 13.1503 10.301 12.1139 11.3374L11.7915 11.6598C11.2319 12.2194 11.1772 13.1221 11.6971 13.7521C12.1986 14.3599 12.7393 14.9652 13.3255 15.5514C13.9117 16.1377 14.5171 16.6783 15.1248 17.1798C15.7549 17.6998 16.6576 17.645 17.2171 17.0855L17.5396 16.763C18.5759 15.7266 20.2837 15.754 21.3538 16.8242L23.6791 19.1495C24.7493 20.2197 24.7767 21.9274 23.7403 22.9637L22.2391 24.465Z" stroke="#1E1E1E" stroke-width="1.75"/>
<path d="M20.5629 11.3774C20.2783 10.683 19.854 10.0324 19.2902 9.46861C18.7582 8.93664 18.149 8.52892 17.4987 8.24547" stroke="#1E1E1E" stroke-width="1.75" stroke-linecap="round"/>
<path d="M17.4987 4.27276C19.0558 4.83684 20.5167 5.74304 21.7651 6.99136C23.0447 8.27101 23.9648 9.77408 24.5255 11.3751" stroke="#1E1E1E" stroke-width="1.75" stroke-linecap="round"/>
</svg>
