<svg width="32" height="32" viewBox="0 0 32 32" fill="none" xmlns="http://www.w3.org/2000/svg">
<path d="M20.7415 19.3969L20.1343 20.0363C20.1343 20.0363 18.6908 21.556 14.7508 17.4079C10.8108 13.2598 12.2543 11.7401 12.2543 11.7401L12.6367 11.3375C13.5788 10.3457 13.6676 8.75329 12.8457 7.5908L11.1643 5.21282C10.147 3.774 8.18128 3.58393 7.01527 4.81152L4.92247 7.01485C4.34431 7.62354 3.95687 8.4126 4.00385 9.28792C4.12405 11.5273 5.08095 16.3454 10.4205 21.9669C16.0829 27.9283 21.3958 28.1652 23.5684 27.9508C24.2556 27.883 24.8532 27.5124 25.3348 27.0053L27.2289 25.0112C28.5074 23.6652 28.147 21.3576 26.5111 20.416L23.9638 18.9498C22.8897 18.3315 21.581 18.5131 20.7415 19.3969Z" fill="white"/>
<path d="M17.6787 2.50579C17.7669 1.9606 18.2823 1.59077 18.8275 1.67903C18.8612 1.68549 18.9698 1.70579 19.0267 1.71846C19.1405 1.7438 19.2992 1.78281 19.4971 1.84044C19.8928 1.9557 20.4456 2.14557 21.1091 2.44975C22.4374 3.05876 24.2052 4.1241 26.0396 5.9585C27.874 7.7929 28.9393 9.56065 29.5483 10.889C29.8525 11.5525 30.0424 12.1053 30.1576 12.501C30.2153 12.6989 30.2543 12.8576 30.2796 12.9714C30.2923 13.0283 30.3016 13.0739 30.308 13.1077L30.3157 13.1493C30.4039 13.6945 30.0375 14.2312 29.4923 14.3194C28.9487 14.4074 28.4365 14.0394 28.3461 13.4968C28.3433 13.4822 28.3357 13.443 28.3275 13.4061C28.311 13.3323 28.2825 13.2152 28.2374 13.0603C28.1472 12.7505 27.9905 12.2901 27.7303 11.7225C27.2105 10.5888 26.2759 9.0232 24.6254 7.37271C22.9749 5.72223 21.4093 4.78757 20.2756 4.2678C19.708 4.00759 19.2476 3.85088 18.9378 3.76065C18.7829 3.71554 18.5882 3.67086 18.5144 3.65441C17.9718 3.56398 17.5907 3.04942 17.6787 2.50579Z" fill="white"/>
<path fill-rule="evenodd" clip-rule="evenodd" d="M17.9803 7.10508C18.1321 6.57404 18.6855 6.26655 19.2166 6.41828L18.9419 7.3798C19.2166 6.41828 19.2166 6.41828 19.2166 6.41828L19.2185 6.41883L19.2205 6.41942L19.225 6.42071L19.2353 6.4238L19.2617 6.43202C19.2818 6.43845 19.3069 6.44682 19.3368 6.45744C19.3967 6.47869 19.4759 6.50891 19.5729 6.55052C19.7672 6.63376 20.0326 6.76232 20.3586 6.95527C21.0112 7.34152 21.9022 7.98309 22.9488 9.02971C23.9954 10.0763 24.637 10.9673 25.0232 11.6199C25.2162 11.9459 25.3447 12.2113 25.428 12.4056C25.4696 12.5026 25.4998 12.5818 25.5211 12.6417C25.5317 12.6716 25.5401 12.6967 25.5465 12.7168L25.5547 12.7432L25.5578 12.7535L25.5591 12.758L25.5597 12.76C25.5597 12.76 25.5602 12.7619 24.5987 13.0367L25.5602 12.7619C25.712 13.293 25.4045 13.8465 24.8734 13.9982C24.3469 14.1486 23.7983 13.8476 23.6411 13.3249L23.6362 13.3105C23.6291 13.2904 23.6144 13.251 23.5897 13.1934C23.5404 13.0783 23.4509 12.89 23.3021 12.6385C23.0048 12.1362 22.4679 11.3772 21.5346 10.4439C20.6013 9.51066 19.8423 8.97372 19.34 8.67642C19.0885 8.5276 18.9002 8.43814 18.7851 8.38881C18.7275 8.36412 18.6881 8.34941 18.668 8.3423L18.6537 8.33737C18.1309 8.1802 17.8299 7.6316 17.9803 7.10508Z" fill="white"/>
</svg>
